<svg id="Ebene_1" data-name="Ebene 1" xmlns="http://www.w3.org/2000/svg" viewBox="0 0 33 16"><title>d2p_logo_schriftmarke_rot</title><path d="M2.6001.3999h.49268V4.28271h-.4873L2.6001,3.87549a.91834.91834,0,0,1-.85156.47705c-.66406,0-1.16211-.54639-1.16211-1.5,0-.94775.498-1.49951,1.16211-1.49951A.91314.91314,0,0,1,2.6001,1.835ZM1.85059,1.76563c-.49316,0-.74463.40137-.74463,1.08691s.25146,1.09277.74463,1.09277c.41211,0,.771-.3374.771-1.09277C2.62158,2.09229,2.2627,1.76563,1.85059,1.76563Z" style="fill:#dc4b3a"/><path d="M3.96143,2.85254A1.338,1.338,0,0,1,5.26855,1.34766c.84082,0,1.32275.61621,1.28516,1.64453H4.481c0,.57813.32178.9585.77686.9585a.69538.69538,0,0,0,.74463-.53027h.50879a1.18519,1.18519,0,0,1-1.24268.93213C4.39551,4.35254,3.96143,3.7041,3.96143,2.85254Zm.5249-.26758H6.02881a.73906.73906,0,0,0-.76025-.83008C4.80273,1.75488,4.50781,2.02783,4.48633,2.585Z" style="fill:#dc4b3a"/><path d="M9.14746,2.18848c-.064-.32129-.31592-.42822-.64258-.42822-.28906,0-.57812.1123-.57812.36963,0,.22461.1499.32666.43359.38525l.32129.06445c.498.09619,1.03369.28369,1.03369.8623,0,.61035-.5249.91064-1.15137.91064a1.08536,1.08536,0,0,1-1.17822-.93213h.51953a.60051.60051,0,0,0,.66943.5249c.30518,0,.64258-.10693.64258-.44434,0-.26807-.24121-.40186-.605-.46631l-.35889-.06934C7.79785,2.874,7.439,2.64941,7.439,2.15088c0-.55664.60547-.79785,1.0874-.79785a1.06109,1.06109,0,0,1,1.13525.83545Z" style="fill:#dc4b3a"/><path d="M12.14795,1.40137v2.458h.81934v.42334h-2.126V3.85938h.814V1.82422h-.814V1.40137Zm0-1.00146V.9834h-.49268V.3999Z" style="fill:#dc4b3a"/><path d="M15.813,1.40137h.49268V3.92383c0,.58936-.07471.83008-.23,1.01221a1.348,1.348,0,0,1-1.00732.38037,1.03967,1.03967,0,0,1-1.15674-.86768h.51953c.06982.2627.21973.439.64258.439a.77708.77708,0,0,0,.58936-.21387c.09619-.11279.1499-.24658.1499-.6377V3.75781a.90943.90943,0,0,1-.85156.47656c-.66406,0-1.16211-.4873-1.16211-1.44043,0-.94824.498-1.44092,1.16211-1.44092A.91314.91314,0,0,1,15.813,1.835Zm-.75.36426c-.49268,0-.74414.34277-.74414,1.02832s.25146,1.03369.74414,1.03369c.4126,0,.77148-.27881.77148-1.03369C15.83447,2.0332,15.47559,1.76563,15.063,1.76563Z" style="fill:#dc4b3a"/><path d="M17.82813,1.80811a.90238.90238,0,0,1,.8457-.45508c.69629,0,.90527.46045.90527,1.09814V4.28271h-.49219V2.62256c0-.46631-.03809-.85156-.57324-.85156-.44434,0-.68555.332-.68555.94775v1.564H17.335V1.40137h.49316Z" style="fill:#dc4b3a"/><path d="M1.27734,5.67822H1.77v.72314H2.94824v.42285H1.77v1.666c0,.29443.01611.36914.28906.36914h.88916V9.2832H1.95215c-.5249,0-.6748-.123-.6748-.72363V6.82422H.458V6.40137h.81934Z" style="fill:#dc4b3a"/><path d="M5.25244,6.353a1.34151,1.34151,0,0,1,1.3335,1.49951,1.34274,1.34274,0,1,1-2.667,0A1.34151,1.34151,0,0,1,5.25244,6.353Zm0,2.58691c.439,0,.814-.32129.814-1.0874,0-.76562-.375-1.08691-.814-1.08691-.43945,0-.814.32129-.814,1.08691C4.43848,8.61865,4.813,8.93994,5.25244,8.93994Z" style="fill:#dc4b3a"/><path d="M1.3042,11.83594a.91761.91761,0,0,1,.85156-.48242c.66406,0,1.16211.55176,1.16211,1.5,0,.95313-.498,1.499-1.16211,1.499A.92394.92394,0,0,1,1.3042,13.876V15.2207H.81152V11.40137H1.3042Zm.74951,2.10938c.49268,0,.74463-.40625.74463-1.0918s-.252-1.08789-.74463-1.08789c-.41211,0-.771.32715-.771,1.08789C1.28271,13.61328,1.6416,13.94531,2.05371,13.94531Z" style="fill:#dc4b3a"/><path d="M5.28467,11.40137V11.916a.814.814,0,0,1,.771-.51465h.49268v.4502H6.061c-.55176,0-.76562.36426-.76562.99609v1.0127h.98535v.42285H3.98828v-.42285h.81445V11.8252H3.98291v-.42383Z" style="fill:#dc4b3a"/><path d="M8.55322,11.35352a1.34168,1.34168,0,0,1,1.3335,1.5,1.34264,1.34264,0,1,1-2.667,0A1.34168,1.34168,0,0,1,8.55322,11.35352Zm0,2.58691c.439,0,.814-.32129.814-1.08691,0-.7666-.375-1.08789-.814-1.08789-.43945,0-.814.32129-.814,1.08789C7.73926,13.61914,8.11377,13.94043,8.55322,13.94043Z" style="fill:#dc4b3a"/><path d="M12.50146,10.40039h.49268V14.2832h-.4873l-.00537-.40723a.918.918,0,0,1-.85156.47656c-.66406,0-1.16211-.5459-1.16211-1.499,0-.94824.498-1.5,1.16211-1.5a.91179.91179,0,0,1,.85156.48242ZM11.752,11.76563c-.49316,0-.74463.40234-.74463,1.08789s.25146,1.0918.74463,1.0918c.41211,0,.771-.33691.771-1.0918C12.52295,12.09277,12.16406,11.76563,11.752,11.76563Z" style="fill:#dc4b3a"/><path d="M15.77539,13.91406a.89929.89929,0,0,1-.84619.43848c-.69629,0-.89453-.46-.89453-1.09766V11.40137h.49316V13.084c0,.46582.02637.8457.562.8457.44482,0,.68555-.32715.68555-.94238V11.40137h.49268V14.2832h-.49268Z" style="fill:#dc4b3a"/><path d="M19.665,12.36035h-.498a.68651.68651,0,0,0-.68066-.59961c-.42773,0-.78125.36914-.78125,1.09277,0,.7334.35352,1.09766.78125,1.09766a.71273.71273,0,0,0,.70215-.59473h.50879a1.201,1.201,0,0,1-1.2373.99609c-.79785,0-1.27441-.62109-1.27441-1.499a1.34568,1.34568,0,0,1,1.32227-1.5A1.12381,1.12381,0,0,1,19.665,12.36035Z" style="fill:#dc4b3a"/><path d="M21.08008,10.67871h.49316v.72266H22.752v.42383H21.57324v1.665c0,.29492.01563.37012.28906.37012H22.752v.42285h-.99707c-.52441,0-.6748-.123-.6748-.72266V11.8252h-.81934v-.42383h.81934Z" style="fill:#dc4b3a"/><path d="M25.35059,11.40137v2.459h.81934v.42285h-2.126v-.42285h.81445V11.8252h-.81445v-.42383Zm0-1.001v.584H24.8584v-.584Z" style="fill:#dc4b3a"/><path d="M28.35547,11.35352a1.34177,1.34177,0,0,1,1.334,1.5,1.34264,1.34264,0,1,1-2.667,0A1.3416,1.3416,0,0,1,28.35547,11.35352Zm0,2.58691c.43945,0,.81445-.32129.81445-1.08691,0-.7666-.375-1.08789-.81445-1.08789-.43848,0-.81348.32129-.81348,1.08789C27.542,13.61914,27.917,13.94043,28.35547,13.94043Z" style="fill:#dc4b3a"/><path d="M31.03027,11.80859a.90238.90238,0,0,1,.8457-.45508c.69629,0,.90527.46094.90527,1.09766v1.832h-.49219V12.623c0-.46582-.03809-.85156-.57324-.85156-.44434,0-.68555.332-.68555.94824V14.2832h-.49316V11.40137h.49316Z" style="fill:#dc4b3a"/></svg>